<svg xmlns="http://www.w3.org/2000/svg" viewBox="0 0 210 200" width="420" height="400">
  <defs><clipPath id="mf"><polygon points="15,173 158,178 143,50 20,44"/></clipPath></defs>
  <ellipse cx="98" cy="190" rx="82" ry="9" fill="#967040" opacity="0.28"/>
  <polygon points="158,178 188,143 168,36 143,50" fill="#F8EDD8"/>
  <polygon points="15,173 158,178 143,50 20,44" fill="#ECD8A8"/>
  <rect x="0" y="100" width="210" height="12" fill="#FFF8EC" opacity="0.92" clip-path="url(#mf)"/>
  <rect x="0" y="134" width="210" height="12" fill="#FFF8EC" opacity="0.92" clip-path="url(#mf)"/>
  <path d="M 85,47 C 81,60 81,78 85,89 C 89,78 89,60 85,47 Z" fill="#F8EDD8"/>
  <polygon points="20,44 143,50 168,36 70,20" fill="#A87020"/>
</svg>
