<svg xmlns="http://www.w3.org/2000/svg" viewBox="0 0 210 200" width="420" height="400">
  <defs><clipPath id="mf"><polygon points="15,173 158,178 143,50 20,44"/></clipPath></defs>
  <ellipse cx="98" cy="190" rx="82" ry="9" fill="#482818" opacity="0.38"/>
  <polygon points="158,178 188,143 168,36 143,50" fill="#A07050"/>
  <polygon points="15,173 158,178 143,50 20,44" fill="#8A5838"/>
  <rect x="0" y="100" width="210" height="12" fill="#C89868" opacity="0.92" clip-path="url(#mf)"/>
  <rect x="0" y="134" width="210" height="12" fill="#C89868" opacity="0.92" clip-path="url(#mf)"/>
  <path d="M 55,46 C 51,60 51,76 55,86 C 59,76 59,60 55,46 Z" fill="#1E0C06"/>
  <path d="M 100,48 C 96,62 96,79 100,90 C 104,79 104,62 100,48 Z" fill="#1E0C06"/>
  <polygon points="20,44 143,50 168,36 70,20" fill="#160804"/>
</svg>
