<svg xmlns="http://www.w3.org/2000/svg" viewBox="0 0 210 200" width="420" height="400">
  <defs><clipPath id="mf"><polygon points="15,173 158,178 143,50 20,44"/></clipPath></defs>
  <ellipse cx="98" cy="190" rx="82" ry="9" fill="#8A9830" opacity="0.28"/>
  <polygon points="158,178 188,143 168,36 143,50" fill="#E0E890"/>
  <polygon points="15,173 158,178 143,50 20,44" fill="#D0D870"/>
  <rect x="0" y="100" width="210" height="12" fill="#F0F4C8" opacity="0.92" clip-path="url(#mf)"/>
  <rect x="0" y="134" width="210" height="12" fill="#F0F4C8" opacity="0.92" clip-path="url(#mf)"/>
  <path d="M 48,45 C 44,60 44,79 48,91 C 52,79 52,60 48,45 Z" fill="#C8C848"/>
  <path d="M 85,47 C 81,63 81,83 85,97 C 89,83 89,63 85,47 Z" fill="#C8C848"/>
  <path d="M 118,49 C 114,64 114,81 118,93 C 122,81 122,64 118,49 Z" fill="#C8C848"/>
  <polygon points="20,44 143,50 168,36 70,20" fill="#FFFFF0"/>
</svg>
